<?xml version="1.0" encoding="UTF-8"?>
<svg id="Layer_2" data-name="Layer 2" xmlns="http://www.w3.org/2000/svg" xmlns:xlink="http://www.w3.org/1999/xlink" viewBox="0 0 320.7 88.24">
  <defs>
    <style>
      .cls-1 {
        fill: none;
      }

      .cls-2 {
        fill: url(#linear-gradient);
      }

      .cls-3 {
        letter-spacing: 0em;
      }

      .cls-4 {
        fill: #e83f25;
      }

      .cls-4, .cls-5, .cls-6 {
        fill-rule: evenodd;
      }

      .cls-7 {
        letter-spacing: 0em;
      }

      .cls-5 {
        fill: #a80511;
      }

      .cls-6, .cls-8 {
        fill: #f29125;
      }

      .cls-9 {
        font-family: EBGaramondRoman-Bold, 'EB Garamond';
        font-size: 27.27px;
        font-variation-settings: 'wght' 700;
        font-weight: 700;
      }

      .cls-9, .cls-10 {
        fill: #bdccd4;
      }

      .cls-11 {
        letter-spacing: 0em;
      }

      .cls-12 {
        letter-spacing: 0em;
      }

      .cls-13 {
        clip-path: url(#clippath);
      }
    </style>
    <clipPath id="clippath">
      <path class="cls-1" d="M48.29,4.28l-18.38,49h12.02l3.27-9.52h17.61l3.27,9.52h12.26L59.89,4.28h-11.6ZM48.64,33.54l5.35-15.68,5.35,15.68h-10.71ZM144.14,14.78c3.99,0,7.2,2.03,9.82,5.74l7.5-7.98c-4.05-5.95-10.23-9.24-17.91-9.24-11.75,0-20.72,8.37-22.55,20.72-1.8-12.25-10.63-19.74-22.9-19.74h-19.69v49h19.69c12.28,0,21.1-7.49,22.9-19.74,1.84,12.35,10.8,20.72,22.55,20.72,7.67,0,13.86-3.29,17.91-9.24l-7.5-7.98c-2.62,3.71-5.83,5.74-9.82,5.74-6.84,0-11.6-5.6-11.6-14s4.76-14,11.6-14ZM97.61,42.22h-7.44V15.34h7.44c7.08,0,11.84,4.97,11.84,13.44s-4.76,13.44-11.84,13.44ZM184.05,44.04h20.02v9.24h-35.18v-7.35l17.95-17.85c4.12-4.13,4.85-6.65,4.85-9.03,0-3.85-2.53-6.09-7.45-6.09-3.99,0-7.38,1.61-9.64,4.9l-7.85-5.32c3.59-5.53,10.11-9.1,18.49-9.1,10.37,0,17.29,5.6,17.29,14.49,0,4.76-1.26,9.1-7.78,15.47l-10.71,10.64ZM225.01,3.44c-11.44,0-19.95,9.17-19.95,25.34s8.51,25.34,19.95,25.34,19.95-9.17,19.95-25.34-8.45-25.34-19.95-25.34ZM225.01,44.53c-5.32,0-9.04-4.62-9.04-15.75s3.72-15.75,9.04-15.75,9.11,4.62,9.11,15.75-3.72,15.75-9.11,15.75ZM261.25,44.04h20.02v9.24h-35.18v-7.35l17.95-17.85c4.12-4.13,4.85-6.65,4.85-9.03,0-3.85-2.53-6.09-7.45-6.09-3.99,0-7.38,1.61-9.64,4.9l-7.85-5.32c3.59-5.53,10.11-9.1,18.49-9.1,10.37,0,17.29,5.6,17.29,14.49,0,4.76-1.26,9.1-7.78,15.47l-10.71,10.64ZM304.68,22.55c-4.85,0-8.78,1.47-11.5,4.34.33-9.38,5.32-14.21,13.1-14.21,3.13,0,6.12.63,8.71,2.45l3.99-8.33c-3.26-2.17-8.05-3.36-12.97-3.36-14.03,0-23.74,9.45-23.74,26.39,0,15.82,7.98,24.29,20.81,24.29,9.84,0,17.62-6.3,17.62-16.31,0-9.24-7.05-15.26-16.03-15.26ZM302.48,45.65c-5.19,0-8.18-3.08-8.18-7.28s3.33-7.35,8.05-7.35,7.91,2.87,7.91,7.35-3.19,7.28-7.78,7.28Z"/>
    </clipPath>
    <linearGradient id="linear-gradient" x1="28.54" y1="28.13" x2="322.54" y2="28.13" gradientUnits="userSpaceOnUse">
      <stop offset="0" stop-color="#e83f25"/>
      <stop offset="1" stop-color="#f29125"/>
    </linearGradient>
  </defs>
  <g id="Logo">
    <g class="cls-13">
      <rect class="cls-2" x="28.54" y="-4.37" width="294" height="65"/>
      <path class="cls-10" d="M178.77,49.59c-4.45-2.43-9.15-3.35-15.53-4.05-14.68-1.6-27.44-.77-35.63-.02-7.5.69-15.69,1.94-24.63,4.07-8.16,1.95-19.75,5.04-19.43,6.82.41,2.28,20.81,3.57,102.99,0-1.27-1.82-3.61-4.54-7.77-6.82Z"/>
      <path class="cls-10" d="M164.24,41.16c-16.58-7.12-21.8-7.31-23.09-5.72-1.08,1.34.42,4.2,1.65,5.72,2.49,3.06,5.94,3.12,13.19,6.01,2.85,1.14,5.12,2.24,6.6,3,.55-3,1.1-6.01,1.65-9.01Z"/>
      <path class="cls-8" d="M173.63,60.08c-1,.36-1.99.72-2.99,1.09-2.36-2.7-9.07-5.43-12.69-6.51-13.97-4.16-26.61-3.74-39.9,2.23,15.91-10.2,36.52-5.88,52.56,2.21-13.11-15.98-43.04-12.01-57.99-.05,16.44-15.17,45.47-15.65,61.02,1.03Z"/>
    </g>
    <text class="cls-9" transform="translate(60.34 80.03)"><tspan x="0" y="0">Bris</tspan><tspan class="cls-11" x="46.23" y="0">b</tspan><tspan class="cls-3" x="60.9" y="0">ane - Hen</tspan><tspan class="cls-12" x="169.87" y="0">g</tspan><tspan class="cls-7" x="183.28" y="0">qin</tspan></text>
    <path class="cls-6" d="M14.86,0v14.82H0V0h14.86Z"/>
    <path class="cls-5" d="M36.08,4.27v10.62h-10.65V4.27h10.65Z"/>
    <path class="cls-4" d="M25.44,14.89v10.62h-10.65v-10.62h10.65Z"/>
  </g>
</svg>