<?xml version="1.0" encoding="UTF-8"?>
<svg id="Layer_2" data-name="Layer 2" xmlns="http://www.w3.org/2000/svg" xmlns:xlink="http://www.w3.org/1999/xlink" viewBox="0 0 133.54 31.84">
  <defs>
    <style>
      .cls-1 {
        fill: #f15a24;
      }

      .cls-2 {
        fill: url(#linear-gradient);
      }

      .cls-3 {
        fill: #b3b3b3;
      }
    </style>
    <linearGradient id="linear-gradient" x1="10.16" y1="1.26" x2="66.12" y2="33.57" gradientUnits="userSpaceOnUse">
      <stop offset="0" stop-color="#fff"/>
      <stop offset=".05" stop-color="#fce6dd"/>
      <stop offset=".13" stop-color="#fac5b2"/>
      <stop offset=".21" stop-color="#f7a88c"/>
      <stop offset=".3" stop-color="#f5906b"/>
      <stop offset=".4" stop-color="#f37c51"/>
      <stop offset=".5" stop-color="#f26d3d"/>
      <stop offset=".62" stop-color="#f1622e"/>
      <stop offset=".76" stop-color="#f15b26"/>
      <stop offset="1" stop-color="#f15a24"/>
    </linearGradient>
  </defs>
  <g id="Layer_1-2" data-name="Layer 1">
    <g>
      <path class="cls-1" d="M90.11,14.4v3.13h-13.22v-2.49l6.75-6.05c1.55-1.4,1.82-2.26,1.82-3.06,0-1.31-.95-2.07-2.8-2.07-1.5,0-2.77.55-3.62,1.66l-2.95-1.8c1.35-1.88,3.8-3.09,6.95-3.09,3.9,0,6.5,1.9,6.5,4.91,0,1.61-.48,3.09-2.92,5.25l-4.02,3.61h7.52Z"/>
      <path class="cls-1" d="M90.74,9.23c0-5.48,3.2-8.59,7.5-8.59s7.5,3.11,7.5,8.59-3.17,8.6-7.5,8.6-7.5-3.11-7.5-8.6ZM101.66,9.23c0-3.77-1.4-5.34-3.42-5.34s-3.4,1.57-3.4,5.34,1.4,5.34,3.4,5.34,3.42-1.57,3.42-5.34Z"/>
      <path class="cls-1" d="M119.64,14.4v3.13h-13.22v-2.49l6.75-6.05c1.55-1.4,1.82-2.26,1.82-3.06,0-1.31-.95-2.07-2.8-2.07-1.5,0-2.77.55-3.62,1.66l-2.95-1.8c1.35-1.88,3.8-3.09,6.95-3.09,3.9,0,6.5,1.9,6.5,4.91,0,1.61-.47,3.09-2.92,5.25l-4.02,3.61h7.52Z"/>
      <path class="cls-1" d="M133.54,12.31c0,2.94-2.27,5.51-7.27,5.51-2.42,0-4.97-.64-6.67-1.78l1.6-2.94c1.32.95,3.15,1.5,4.97,1.5,2.02,0,3.27-.81,3.27-2.16s-.9-2.16-4.07-2.16h-4.47l.9-9.35h10.67v3.09h-7.3l-.27,3.16h1.42c5.17,0,7.22,2.21,7.22,5.15Z"/>
    </g>
    <path id="ADC" class="cls-2" d="M18.8,22.48H7.75l-2.11,6H0L10.61.48h5.44l10.64,28h-5.78l-2.11-6ZM17.07,17.56l-3.77-10.72-3.77,10.72h7.55ZM25.77.48h10.81c7.79,0,13.12,5.52,13.12,14s-5.34,14-13.12,14h-10.81V.48ZM36.31,23.16c4.73,0,7.82-3.32,7.82-8.68s-3.09-8.68-7.82-8.68h-5.03v17.36h5.03ZM48.96,14.48c0-8.44,5.51-14.48,12.92-14.48,4.11,0,7.55,1.76,9.79,4.96l-3.54,3.84c-1.6-2.16-3.6-3.28-5.98-3.28-4.45,0-7.62,3.68-7.62,8.96s3.16,8.96,7.62,8.96c2.38,0,4.39-1.12,5.98-3.32l3.54,3.84c-2.24,3.24-5.68,5-9.83,5-7.38,0-12.88-6.04-12.88-14.48Z"/>
    <g>
      <path class="cls-3" d="M79.62,28.62c-.37,0-.71-.04-1.04-.13-.33-.09-.63-.22-.9-.4-.05-.04-.1-.08-.14-.13-.04-.04-.08-.09-.1-.15-.07-.2-.11-.45-.14-.74-.03-.29-.03-.57-.03-.85,0-.06.02-.1.07-.12.05-.02.1-.04.17-.04s.12,0,.16.03.07.06.08.11c.19.6.46,1.07.82,1.4s.76.5,1.21.5c.28,0,.52-.06.71-.18.2-.12.34-.28.45-.47s.15-.4.15-.62c0-.28-.05-.51-.16-.7-.11-.18-.27-.35-.48-.5s-.48-.31-.8-.47c-.35-.19-.69-.39-1.02-.61s-.6-.46-.82-.76-.32-.65-.32-1.09.12-.84.36-1.18c.24-.34.58-.61,1.01-.8.43-.19.94-.29,1.5-.29.31,0,.61.03.88.1s.49.13.65.19c.09.03.16.07.21.12.05.05.08.12.11.23.05.17.1.37.13.6s.06.48.06.73c0,.1-.08.14-.23.14-.07,0-.14-.02-.2-.05-.07-.03-.11-.08-.13-.13-.15-.46-.36-.82-.63-1.06-.27-.24-.6-.36-.99-.36-.26,0-.49.04-.68.13-.19.08-.34.21-.45.38-.11.17-.17.39-.17.67,0,.21.07.4.22.58.15.18.36.35.62.52.27.17.57.35.9.55.41.22.75.45,1.03.68.28.23.49.48.63.76.14.28.22.6.22.98,0,.53-.12.97-.37,1.33-.25.36-.59.62-1.03.8-.44.18-.96.27-1.56.27Z"/>
      <path class="cls-3" d="M83.17,31.84c-.2,0-.4-.06-.57-.19-.18-.12-.27-.29-.27-.49,0-.15.04-.3.12-.43.08-.14.2-.2.36-.2.12,0,.24.02.36.06.12.04.24.06.35.05.1,0,.18-.03.22-.07.05-.04.1-.1.16-.2.07-.11.14-.23.22-.37.08-.13.17-.29.25-.47.09-.18.19-.4.3-.66.08-.17.11-.33.11-.48,0-.1-.01-.19-.04-.28-.03-.09-.06-.17-.09-.24l-1.54-3.42c-.07-.16-.15-.3-.25-.42s-.22-.2-.36-.24c-.08-.03-.14-.06-.19-.1-.05-.03-.07-.08-.07-.14s.03-.1.1-.11c.07-.01.13-.02.18-.02.2,0,.35,0,.47.01.12,0,.23.02.33.02.1,0,.21.01.33.01.18,0,.32,0,.43-.01.11,0,.23-.02.35-.02.12,0,.28-.01.47-.01.06,0,.12.01.19.03.07.02.1.06.1.13s-.04.11-.11.15c-.08.04-.15.07-.22.09-.08.02-.15.07-.2.14-.05.07-.08.17-.08.29,0,.06.01.13.04.21s.06.17.09.27l.88,2s.03.05.05.05c0,0,.02-.02.04-.05l.73-1.96c.03-.06.05-.13.07-.22.02-.09.03-.17.03-.23,0-.14-.04-.25-.11-.33-.07-.08-.15-.13-.24-.16-.07-.03-.14-.07-.22-.1-.08-.04-.11-.09-.11-.15s.04-.11.11-.13c.07-.02.13-.03.19-.03.19,0,.34,0,.47.02s.28.02.45.02c.11,0,.2,0,.27-.01.07,0,.15-.02.24-.02.08,0,.19-.01.32-.01.05,0,.11,0,.19.02.07.01.11.05.11.11s-.02.11-.07.14c-.05.03-.11.06-.18.1-.15.04-.29.13-.42.27-.14.14-.25.3-.33.49l-1.84,4.18c-.05.11-.12.26-.2.45s-.18.39-.27.62c-.1.22-.2.46-.31.7-.11.24-.22.48-.32.71-.09.21-.24.37-.43.47-.19.11-.41.16-.64.16Z"/>
      <path class="cls-3" d="M91.55,28.66s-.06-.02-.11-.07-.07-.08-.07-.1c.02-.11.03-.23.04-.35s.02-.23.03-.32v-.07c-.16.22-.39.42-.68.59-.29.17-.63.26-1,.26-.48,0-.9-.11-1.26-.34-.37-.23-.65-.53-.86-.91-.21-.38-.31-.79-.31-1.23,0-.52.13-.99.38-1.41.25-.42.6-.75,1.05-1,.45-.24.97-.37,1.57-.37.14,0,.29.01.44.03.15.02.28.05.39.08.1.02.16.04.17.04.04,0,.06-.07.06-.2v-1.51c0-.3-.04-.52-.13-.64-.09-.12-.22-.2-.41-.23-.09-.02-.14-.08-.14-.18,0-.09.04-.14.13-.17.33-.07.64-.15.94-.25.29-.09.53-.18.72-.26.08-.03.15-.05.19-.07.04-.01.06-.02.07-.02.08,0,.13.04.13.12-.02.19-.03.37-.04.53-.01.16-.02.35-.03.56l-.04,5.84c0,.27.02.47.06.59s.11.18.22.18c.04,0,.1,0,.17,0,.07,0,.19-.01.36-.03.13,0,.19.03.19.12,0,.06-.02.13-.07.19-.05.06-.09.09-.13.09-.29.03-.58.08-.88.16-.3.07-.6.16-.91.28-.06.02-.1.04-.13.05-.03.01-.06.02-.08.02ZM90.35,27.85c.16,0,.34-.04.54-.11.2-.08.36-.18.5-.32v-2.5c0-.17-.06-.33-.18-.5-.12-.16-.28-.3-.47-.41-.2-.11-.4-.16-.62-.16-.2,0-.4.07-.6.21-.2.14-.36.35-.49.64s-.2.66-.2,1.1c0,.37.05.68.15.94.1.26.22.47.38.63.15.16.32.28.5.35.18.08.35.11.51.11Z"/>
      <path class="cls-3" d="M93.47,28.47c-.07,0-.13-.01-.18-.04-.05-.03-.08-.07-.08-.11,0-.06.03-.11.08-.14.06-.03.13-.06.21-.08.13-.03.24-.08.35-.13.11-.06.16-.16.16-.32v-2.69c0-.18-.03-.34-.08-.47-.06-.13-.17-.22-.35-.26-.03-.02-.06-.04-.09-.07-.03-.03-.04-.07-.04-.14,0-.1.04-.16.11-.18.3-.06.59-.15.89-.26.29-.11.55-.22.77-.34.03-.02.07-.04.1-.06.03-.02.07-.04.1-.04.04,0,.07.01.08.04.01.03.02.06.02.09,0,.06-.01.16-.03.31-.02.15-.03.28-.03.4,0,.03,0,.07,0,.1,0,.04.01.06.02.07.29-.26.59-.46.9-.6.31-.14.66-.22,1.05-.22.43,0,.8.16,1.09.47.29.31.44.72.44,1.24v2.62c0,.16.05.26.15.31.1.05.22.09.34.13.07.02.13.05.19.09.06.04.09.09.09.15,0,.05-.03.08-.08.11-.06.02-.11.04-.16.04-.17,0-.32,0-.45-.02-.13-.01-.25-.02-.38-.03-.12,0-.26-.01-.41-.01-.14,0-.28,0-.41.01-.13,0-.26.02-.39.03-.13.01-.28.02-.45.02-.04,0-.09-.01-.14-.04-.05-.02-.08-.06-.08-.11,0-.06.03-.11.08-.15.05-.04.11-.07.18-.09.13-.04.24-.08.34-.13s.15-.15.15-.31v-2.44c0-.32-.08-.57-.25-.76-.17-.18-.39-.28-.67-.28-.23,0-.43.03-.6.1s-.34.16-.5.28c-.03.02-.06.06-.08.1-.02.04-.03.09-.03.14v2.86c0,.16.05.27.15.32.1.05.21.09.34.13.18.06.27.13.27.23,0,.05-.02.09-.06.11-.04.03-.1.04-.17.04-.17,0-.32,0-.45-.02-.13-.01-.25-.02-.37-.03-.12,0-.25-.01-.41-.01-.14,0-.28,0-.41.01-.13,0-.26.02-.4.03-.14.01-.29.02-.46.02Z"/>
      <path class="cls-3" d="M101.8,28.6c-.47,0-.88-.11-1.24-.34-.36-.22-.64-.53-.84-.93-.2-.4-.31-.85-.31-1.35s.12-.93.36-1.34c.24-.4.57-.73.98-.97.41-.24.85-.36,1.34-.36.36,0,.68.07.96.21.28.14.5.33.67.58.17.24.25.52.25.82,0,.29-.13.43-.4.43h-2.59c-.12,0-.21.03-.26.09s-.08.17-.08.33c0,.34.08.64.24.91.16.27.37.49.63.65s.57.24.91.24c.25,0,.47-.05.68-.14.21-.09.41-.22.59-.38.03-.02.06-.05.09-.07s.05-.03.08-.03c.08,0,.13.05.13.14,0,.11-.05.25-.15.41-.1.18-.25.36-.44.53-.19.17-.42.3-.69.4-.27.1-.57.15-.89.15ZM100.98,24.9h.91c.22,0,.39,0,.5-.01.11,0,.22-.02.32-.05.04,0,.07-.04.09-.1s.03-.13.03-.21c0-.22-.09-.4-.26-.55s-.39-.22-.64-.22c-.18,0-.35.05-.52.15s-.31.23-.42.38-.16.31-.15.47c0,.1.06.14.17.14Z"/>
      <path class="cls-3" d="M104.4,31.84c-.2,0-.4-.06-.57-.19-.18-.12-.27-.29-.27-.49,0-.15.04-.3.12-.43.08-.14.2-.2.36-.2.12,0,.24.02.36.06.12.04.24.06.35.05.1,0,.18-.03.22-.07.05-.04.1-.1.16-.2.07-.11.14-.23.22-.37.08-.13.17-.29.25-.47.09-.18.19-.4.3-.66.08-.17.11-.33.11-.48,0-.1-.01-.19-.04-.28-.03-.09-.06-.17-.09-.24l-1.54-3.42c-.07-.16-.15-.3-.25-.42s-.22-.2-.36-.24c-.08-.03-.14-.06-.19-.1-.05-.03-.07-.08-.07-.14s.03-.1.1-.11c.07-.01.13-.02.18-.02.2,0,.35,0,.47.01.12,0,.23.02.33.02.1,0,.21.01.33.01.18,0,.32,0,.43-.01.11,0,.23-.02.35-.02.12,0,.28-.01.47-.01.06,0,.12.01.19.03.07.02.1.06.1.13s-.04.11-.11.15c-.08.04-.15.07-.22.09-.08.02-.15.07-.2.14-.05.07-.08.17-.08.29,0,.06.01.13.04.21s.06.17.09.27l.88,2s.03.05.05.05c0,0,.02-.02.04-.05l.73-1.96c.03-.06.05-.13.07-.22.02-.09.03-.17.03-.23,0-.14-.04-.25-.11-.33-.07-.08-.15-.13-.24-.16-.07-.03-.14-.07-.22-.1-.08-.04-.11-.09-.11-.15s.04-.11.11-.13c.07-.02.13-.03.19-.03.19,0,.34,0,.47.02s.28.02.45.02c.11,0,.2,0,.27-.01.07,0,.15-.02.24-.02.08,0,.19-.01.32-.01.05,0,.11,0,.19.02.07.01.11.05.11.11s-.02.11-.07.14c-.05.03-.11.06-.18.1-.15.04-.29.13-.42.27-.14.14-.25.3-.33.49l-1.84,4.18c-.05.11-.12.26-.2.45s-.18.39-.27.62c-.1.22-.2.46-.31.7-.11.24-.22.48-.32.71-.09.21-.24.37-.43.47-.19.11-.41.16-.64.16Z"/>
      <path class="cls-3" d="M110.9,26.44c-.08,0-.11-.04-.11-.11,0-.21.02-.38.06-.5.04-.13.11-.2.19-.2.44-.06.9-.13,1.37-.19s.93-.11,1.37-.15c.07,0,.11.01.13.04.02.03.03.06.03.1,0,.22-.02.38-.05.49-.03.11-.1.17-.2.19-.43.06-.9.12-1.38.18s-.96.12-1.41.16Z"/>
      <path class="cls-3" d="M115.9,28.5c-.09,0-.17-.02-.22-.05-.06-.03-.08-.07-.08-.12,0-.1.11-.18.33-.23.3-.07.52-.16.66-.27.14-.11.21-.29.21-.56v-5.44c0-.27-.06-.47-.17-.59s-.33-.2-.63-.25c-.12-.02-.2-.05-.25-.1-.05-.05-.08-.1-.08-.14,0-.06.03-.1.08-.13.06-.03.13-.04.22-.04.25,0,.46,0,.62.01.16,0,.31.02.46.03.14.01.31.02.51.02s.35,0,.5-.02c.15-.02.31-.03.49-.05.18-.02.41-.02.69-.02,1,0,1.76.13,2.28.4.51.27.77.73.77,1.39,0,.26-.06.49-.17.71-.11.22-.25.38-.4.5-.14.12-.27.22-.41.29-.14.07-.3.14-.5.19-.03,0-.05.03-.05.06s.02.05.05.06c.21.05.43.11.66.19.23.08.44.19.64.34s.36.33.48.56c.12.23.19.52.19.87,0,.45-.07.8-.22,1.06-.15.26-.33.46-.54.59-.21.14-.4.25-.58.34-.27.13-.58.22-.94.29-.35.06-.78.1-1.27.1-.23,0-.48,0-.74-.02-.26-.02-.54-.02-.83-.02-.2,0-.39,0-.58.01-.19,0-.38.02-.58.03-.2.01-.4.02-.6.02ZM118.97,24.01c.21,0,.42-.02.62-.07.2-.05.41-.14.61-.26.08-.06.17-.17.29-.35.11-.18.17-.43.17-.77,0-.3-.04-.56-.13-.79-.09-.23-.24-.41-.46-.55-.22-.13-.52-.2-.9-.2-.28,0-.47.04-.58.13-.11.09-.16.22-.16.4v2.03c0,.17.06.28.19.34.13.06.24.09.34.09ZM119.29,27.88c.3,0,.57-.08.83-.23.25-.15.46-.36.61-.61.15-.26.23-.54.23-.85,0-.3-.04-.54-.13-.73-.08-.19-.19-.34-.3-.46-.11-.12-.22-.2-.31-.26-.09-.06-.22-.12-.41-.18s-.44-.1-.73-.1c-.19,0-.34.04-.46.12s-.18.17-.18.28v2.22c0,.28.07.48.22.61.15.12.36.19.63.19Z"/>
      <path class="cls-3" d="M123.89,28.6c-.2,0-.4-.05-.58-.16-.18-.1-.33-.24-.44-.41s-.17-.34-.17-.52c0-.27.08-.49.25-.67.17-.17.42-.33.77-.46l1.19-.48c.17-.06.27-.12.31-.18.04-.06.06-.16.06-.31l.03-.71c0-.22-.04-.4-.15-.54-.11-.14-.27-.2-.48-.2-.11,0-.23.02-.34.06-.12.04-.21.09-.28.16-.03.03-.06.07-.07.13-.01.05-.02.1-.02.15,0,.04,0,.09,0,.15,0,.06,0,.11,0,.16s-.06.11-.19.18-.27.14-.43.19c-.16.06-.3.08-.41.08-.06,0-.11-.02-.14-.06-.03-.04-.05-.09-.05-.14,0-.13.04-.26.13-.39.09-.13.23-.27.43-.43.21-.17.45-.32.7-.45.25-.13.5-.24.75-.32.24-.08.45-.12.63-.12.41,0,.74.13.98.38s.37.58.36.99l-.06,2.57c0,.18.03.32.11.44.08.12.18.18.3.18.18,0,.32-.05.43-.14.03-.03.06-.05.09-.05.04,0,.08.01.11.04.03.03.04.06.04.1,0,.09-.07.2-.2.32-.15.14-.32.25-.49.33-.17.08-.35.11-.52.11-.45,0-.82-.22-1.1-.66h-.04c-.28.23-.54.4-.77.5-.23.1-.48.16-.75.16ZM124.59,27.88c.12,0,.22-.02.31-.05s.16-.09.22-.15c.03-.04.06-.09.08-.14.02-.06.04-.14.04-.24l.03-.77c0-.08,0-.13-.03-.16-.03-.03-.06-.04-.09-.04-.02,0-.04,0-.08,0-.03,0-.07.02-.11.04-.31.12-.54.25-.68.38-.14.14-.2.31-.2.53s.06.37.17.46.23.14.34.14Z"/>
      <path class="cls-3" d="M127.3,28.47c-.07,0-.13-.01-.18-.04-.05-.02-.08-.06-.08-.11,0-.06.03-.11.08-.14.06-.03.12-.06.21-.1.13-.04.24-.08.35-.13.11-.05.16-.16.16-.32v-5.86c0-.22-.04-.41-.11-.57-.07-.16-.21-.25-.43-.29-.08-.02-.13-.08-.13-.18,0-.1.04-.15.11-.17.21-.04.43-.1.66-.17.23-.07.44-.14.64-.22.2-.07.37-.13.5-.17.06-.02.1-.04.13-.04.04,0,.07.01.09.04.02.03.03.05.03.08,0,.06-.01.19-.04.37-.03.18-.04.42-.04.73v6.43c0,.17.05.28.15.32.1.05.22.09.34.13.08.03.15.06.21.1.06.03.08.08.08.14,0,.05-.03.08-.08.11-.05.02-.11.04-.18.04-.16,0-.31,0-.45-.02-.14-.01-.27-.02-.4-.02-.13,0-.27,0-.43,0-.14,0-.28,0-.4.01-.12,0-.25.02-.38.03-.13.01-.28.02-.45.02Z"/>
      <path class="cls-3" d="M129.88,28.47c-.07,0-.12-.01-.17-.04-.04-.03-.06-.07-.06-.11,0-.06.03-.11.08-.14.05-.03.11-.06.18-.07.2-.05.35-.1.44-.16.09-.06.13-.15.13-.29v-2.6c0-.26-.04-.45-.13-.58-.09-.13-.23-.21-.43-.24-.04,0-.08-.03-.1-.07-.03-.04-.04-.08-.04-.13,0-.11.05-.17.14-.18.41-.08.76-.19,1.06-.33s.53-.25.69-.33c.12-.06.2-.08.23-.08.09,0,.14.04.14.12,0,.11-.03.27-.05.46-.03.2-.05.4-.07.62-.02.22-.03.43-.03.62v2.7c0,.12.05.21.14.28.09.06.24.12.45.18.07.02.13.05.18.08.05.03.08.07.08.14,0,.1-.07.14-.22.14-.16,0-.32,0-.47-.01-.15,0-.29-.02-.43-.02-.14,0-.29-.01-.44-.01-.14,0-.29,0-.42.01-.14,0-.27.02-.41.03-.14.01-.3.02-.47.02ZM131.16,22.42c-.25,0-.46-.08-.62-.24s-.25-.35-.25-.58c0-.25.08-.45.25-.61s.38-.24.62-.24.47.08.64.24.26.36.26.61c0,.22-.09.42-.26.58s-.38.24-.64.24Z"/>
    </g>
  </g>
</svg>